<?xml version="1.0" standalone="no"?>
<!DOCTYPE svg PUBLIC "-//W3C//DTD SVG 20010904//EN"
 "http://www.w3.org/TR/2001/REC-SVG-20010904/DTD/svg10.dtd">
<svg version="1.0" xmlns="http://www.w3.org/2000/svg"
 width="600.000000pt" height="600.000000pt" viewBox="0 0 600.000000 600.000000"
 preserveAspectRatio="xMidYMid meet">
<metadata>
Created by potrace 1.11, written by Peter Selinger 2001-2013
</metadata>
<g transform="translate(0.000000,600.000000) scale(0.100000,-0.100000)"
fill="#000000" stroke="none">
<path d="M0 3000 l0 -3000 3000 0 3000 0 0 1688 -1 1687 -1680 1313 -1681
1312 -1319 0 -1319 0 0 -3000z m828 1470 c169 -22 254 -98 288 -259 25 -120
14 -323 -22 -393 -19 -37 -63 -66 -125 -81 l-53 -14 39 -13 c64 -20 112 -56
142 -107 l28 -48 3 -327 3 -328 -190 0 -191 0 -1 288 c0 158 -4 309 -8 336
-10 59 -38 86 -87 86 l-34 0 0 -355 0 -355 -205 0 -205 0 0 790 0 790 273 0
c149 0 305 -5 345 -10z m1870 -92 l-3 -103 -202 -3 -203 -2 0 105 0 105 205 0
206 0 -3 -102z m552 -688 l0 -790 -205 0 -205 0 0 790 0 790 205 0 205 0 0
-790z m-1389 516 c89 -19 156 -55 206 -109 76 -83 76 -83 81 -674 l3 -523
-190 0 -191 0 0 57 0 56 -31 -42 c-96 -134 -369 -117 -443 27 -34 67 -48 292
-25 404 21 99 63 133 260 214 154 63 207 90 213 111 23 85 16 213 -15 244 -22
22 -48 24 -73 6 -15 -11 -18 -35 -23 -150 l-6 -137 -183 0 -184 0 0 78 c0 97
16 194 40 249 37 84 147 163 263 188 82 18 216 18 298 1z m2050 0 c83 -18 142
-47 192 -95 63 -59 78 -98 84 -222 l6 -109 -176 0 -175 0 -8 91 c-7 95 -19
119 -57 119 -42 -1 -60 -26 -65 -89 -8 -107 19 -136 244 -255 190 -100 236
-153 256 -296 13 -96 -2 -228 -34 -296 -26 -57 -95 -117 -167 -146 -49 -20
-74 -23 -206 -23 -174 0 -243 17 -329 83 -80 60 -116 160 -116 325 l0 67 174
0 173 0 6 -106 c6 -120 18 -144 73 -144 46 0 64 29 64 106 0 115 15 101 -262
262 -170 99 -226 177 -236 328 -9 146 24 264 89 318 100 85 296 119 470 82z
m-1211 -656 l0 -650 -205 0 -205 0 0 650 0 650 205 0 205 0 0 -650z m-1889
-853 c71 -23 127 -55 175 -99 89 -82 113 -150 121 -350 l6 -138 -200 0 -200 0
-5 148 c-3 82 -11 158 -17 170 -24 45 -92 36 -111 -14 -11 -28 -14 -962 -4
-1013 13 -65 86 -79 121 -24 15 22 19 55 22 185 l3 158 -41 0 -41 0 0 120 0
120 235 0 235 0 0 -425 0 -426 -127 3 -126 3 -14 40 c-7 22 -15 46 -18 53 -3
7 -25 -9 -57 -42 -43 -44 -65 -58 -112 -71 -169 -49 -370 42 -445 200 -39 82
-43 124 -48 495 -6 389 5 601 33 683 34 100 158 200 287 233 66 17 264 11 328
-9z m1889 -107 l0 -100 -200 0 -200 0 0 100 0 100 200 0 200 0 0 -100z m1050
-690 l0 -790 -195 0 -195 0 0 45 c0 25 -2 45 -5 45 -3 0 -25 -15 -50 -34 -131
-101 -292 -99 -395 4 -63 63 -65 80 -65 590 0 508 1 521 63 585 55 56 112 78
203 78 81 0 140 -20 202 -67 19 -14 37 -26 40 -26 4 0 7 81 7 180 l0 180 195
0 195 0 0 -790z m719 509 c67 -15 141 -54 189 -99 89 -86 121 -201 122 -432
l0 -138 -255 0 -255 0 0 -179 c0 -99 4 -191 10 -206 12 -31 51 -48 84 -35 35
13 46 59 46 201 l0 129 185 0 185 0 0 -99 c0 -166 -24 -248 -100 -333 -148
-169 -526 -172 -691 -7 -96 96 -112 189 -107 601 4 269 6 299 26 360 48 144
153 224 327 249 56 8 167 2 234 -12z m997 -3 c114 -30 213 -108 234 -185 5
-20 10 -80 10 -133 l0 -98 -170 0 -170 0 0 78 c0 98 -13 126 -62 130 -52 4
-68 -23 -68 -112 0 -67 1 -70 38 -105 21 -20 104 -72 185 -116 233 -126 268
-172 275 -361 10 -279 -91 -394 -364 -411 -160 -10 -298 27 -382 102 -62 56
-80 100 -92 224 -16 160 -38 141 165 141 l175 0 1 -87 c1 -49 4 -99 8 -113 10
-35 51 -53 87 -39 40 15 44 24 44 117 0 103 2 101 -183 207 -170 98 -244 156
-274 215 -32 63 -45 172 -34 274 22 187 93 250 331 290 42 7 192 -4 246 -18z
m-3816 -529 c0 -576 -2 -560 60 -560 62 0 60 -16 60 560 l0 523 195 0 195 0 0
-645 0 -645 -195 0 -195 0 0 52 0 52 -42 -41 c-68 -65 -100 -78 -198 -78 -142
0 -220 52 -256 171 -11 38 -14 149 -14 591 l0 543 195 0 195 0 0 -523z m1050
-122 l0 -645 -200 0 -200 0 0 645 0 645 200 0 200 0 0 -645z"/>
<path d="M620 4035 l0 -178 41 6 c65 9 80 31 86 124 11 155 -11 210 -85 220
l-42 6 0 -178z"/>
<path d="M1697 3461 c-54 -58 -63 -89 -61 -219 2 -104 16 -132 64 -132 50 0
55 17 59 216 2 115 0 184 -7 184 -5 0 -30 -22 -55 -49z"/>
<path d="M3249 2183 c-11 -13 -15 -92 -17 -397 -2 -210 0 -396 3 -414 12 -66
95 -78 112 -15 4 15 8 202 8 414 0 366 -1 388 -19 408 -23 25 -68 27 -87 4z"/>
<path d="M4289 2184 c-10 -12 -15 -51 -17 -131 l-4 -113 61 0 61 0 0 103 c0
120 -11 151 -56 155 -20 2 -36 -3 -45 -14z"/>
<path d="M4567 5962 c458 -360 1423 -1112 1427 -1112 3 0 6 259 6 575 l0 575
-741 0 -741 0 49 -38z"/>
<path d="M4314 5752 c-19 -30 -248 -323 -301 -386 l-33 -39 40 -30 c29 -20 44
-26 53 -19 18 14 213 -141 210 -167 -2 -18 55 -72 74 -70 4 0 76 88 158 195
83 106 160 206 172 222 l22 28 -171 134 c-95 74 -180 141 -189 147 -14 11 -20
9 -35 -15z m152 -197 c52 -42 94 -79 94 -83 -1 -7 -5 -13 -47 -66 l-22 -28
-101 79 c-55 43 -100 82 -100 87 0 13 60 86 71 86 6 0 53 -34 105 -75z m-128
-174 c50 -40 92 -75 92 -78 0 -3 -18 -27 -39 -54 l-39 -49 -101 80 c-56 44
-101 82 -101 85 0 3 17 28 37 55 23 30 41 46 47 41 6 -4 53 -40 104 -80z"/>
<path d="M4731 5313 c-29 -35 -30 -39 -14 -51 78 -55 123 -96 115 -104 -18
-18 -128 -41 -203 -42 l-76 -1 -9 -52 -10 -53 58 0 c57 0 58 -1 47 -22 -10
-19 -7 -25 27 -53 l38 -33 -36 -44 -37 -45 41 -33 41 -33 18 22 c10 12 27 34
37 48 l19 26 41 -33 c40 -31 43 -32 60 -17 18 16 19 15 31 -38 7 -30 16 -55
20 -55 5 0 29 9 54 20 l46 20 -19 55 c-22 64 -34 179 -23 218 l8 27 74 -60
c41 -33 75 -60 76 -60 5 0 58 81 54 83 -46 30 -178 134 -179 140 0 5 12 24 27
43 l26 35 -34 29 c-33 28 -59 38 -59 23 0 -5 -11 -21 -24 -38 l-24 -29 -43 35
c-24 19 -65 52 -90 72 l-47 38 -31 -38z m68 -293 c-18 -22 -35 -40 -38 -40 -3
0 -17 9 -31 20 -19 14 -22 20 -10 24 8 2 35 11 60 19 25 9 46 16 48 16 2 1
-12 -17 -29 -39z m103 -93 l-4 -57 -29 21 -29 20 32 40 c17 21 32 38 33 36 0
-1 -1 -28 -3 -60z"/>
<path d="M5302 4997 c-12 -13 -22 -26 -22 -29 0 -2 35 -32 79 -66 73 -56 80
-60 93 -44 34 39 38 33 -118 153 -6 5 -19 0 -32 -14z"/>
<path d="M5221 4929 c-13 -17 -20 -34 -15 -38 5 -4 48 -37 95 -74 l86 -66 22
29 c11 16 21 33 20 37 0 8 -163 136 -177 140 -4 1 -18 -12 -31 -28z"/>
<path d="M5475 4848 l-27 -32 38 -33 c28 -23 36 -35 28 -43 -8 -8 -19 -4 -42
15 l-30 25 -27 -32 -27 -32 21 -17 c21 -17 21 -18 3 -28 -15 -8 -23 -6 -37 9
-24 27 -28 26 -58 -14 l-26 -33 135 -107 c75 -59 141 -109 147 -111 7 -2 23
10 36 26 22 28 22 31 7 48 -15 17 -14 21 20 66 32 41 35 49 21 56 -41 24 -78
62 -68 72 7 7 29 -4 72 -37 57 -45 62 -46 75 -29 20 25 36 54 32 57 -2 1 -52
40 -112 87 -59 46 -119 92 -131 102 -23 17 -24 17 -50 -15z m55 -243 c19 -23
-1 -40 -29 -26 -24 13 -27 27 -8 34 20 9 24 8 37 -8z"/>
<path d="M5181 4841 l-21 -29 80 -62 80 -62 20 24 c11 13 19 26 20 29 0 4 -36
34 -79 68 l-80 61 -20 -29z"/>
<path d="M5128 4775 c-10 -13 -18 -27 -18 -32 1 -4 35 -35 77 -67 l76 -60 18
23 c11 13 19 27 19 31 0 7 -64 59 -145 121 -5 4 -18 -3 -27 -16z"/>
<path d="M5030 4658 c-30 -39 -59 -77 -65 -84 -14 -20 42 -65 72 -57 18 4 25
-1 32 -20 9 -24 57 -65 65 -56 2 2 31 38 64 80 l60 76 -76 59 c-42 32 -81 62
-86 65 -6 4 -36 -25 -66 -63z m106 -77 c-9 -14 -33 -14 -41 -1 -4 6 -1 18 6
26 11 13 14 13 27 0 8 -8 11 -19 8 -25z"/>
<path d="M5222 4502 c-40 -52 -72 -95 -70 -96 2 -1 18 -14 37 -30 24 -20 36
-24 42 -15 9 15 101 -57 97 -76 -2 -6 12 -25 30 -40 28 -24 35 -26 46 -14 25
27 136 169 136 173 0 3 -193 156 -235 186 -6 4 -42 -35 -83 -88z m146 -63 c23
-17 42 -32 42 -34 0 -14 -14 -35 -24 -35 -6 0 -28 15 -49 33 -28 23 -36 37
-32 50 9 23 14 22 63 -14z"/>
</g>
</svg>
