<?xml version="1.0" standalone="no"?>
<!DOCTYPE svg PUBLIC "-//W3C//DTD SVG 20010904//EN"
 "http://www.w3.org/TR/2001/REC-SVG-20010904/DTD/svg10.dtd">
<svg version="1.0" xmlns="http://www.w3.org/2000/svg"
 width="300.000000pt" height="300.000000pt" viewBox="0 0 300.000000 300.000000"
 preserveAspectRatio="xMidYMid meet">
<metadata>
Created by potrace 1.11, written by Peter Selinger 2001-2013
</metadata>
<g transform="translate(0.000000,300.000000) scale(0.100000,-0.100000)"
fill="#000000" stroke="none">
<path d="M0 1500 l0 -1500 1500 0 1500 0 0 1500 0 1500 -1500 0 -1500 0 0
-1500z m2219 961 c36 -26 70 -90 71 -133 0 -37 -355 -1219 -386 -1284 -13 -28
-33 -59 -43 -68 -48 -44 -68 -45 -667 -46 -429 0 -573 -3 -582 -12 -31 -31 1
-99 58 -122 36 -14 111 -16 653 -16 729 0 659 -14 705 137 103 334 343 1133
348 1161 8 38 12 39 49 10 33 -25 55 -75 55 -120 0 -50 -347 -1186 -375 -1230
-13 -20 -39 -48 -58 -62 -75 -58 -54 -56 -711 -56 -579 0 -608 1 -658 20 -109
41 -204 157 -215 263 -7 69 34 198 229 727 83 223 178 485 214 582 73 206 84
229 120 257 27 21 30 21 593 19 l566 -3 34 -24z"/>
<path d="M1156 1932 l-110 -97 83 -3 82 -3 98 86 c141 122 139 115 40 115
l-84 -1 -109 -97z"/>
<path d="M1532 2022 c2 -4 27 -49 56 -100 l54 -92 84 0 c46 0 84 2 84 4 0 9
-105 181 -115 188 -14 10 -168 10 -163 0z"/>
<path d="M1369 1922 l-95 -87 78 -3 c43 -2 114 -2 157 0 l79 3 -51 87 c-29 48
-56 87 -62 87 -5 0 -53 -39 -106 -87z"/>
<path d="M1046 1788 c35 -59 206 -309 210 -306 2 3 -9 74 -24 159 l-28 154
-83 3 c-65 2 -81 0 -75 -10z"/>
<path d="M1255 1768 c49 -265 62 -329 68 -329 7 0 95 116 221 294 l48 67 -172
0 -171 0 6 -32z"/>
<path d="M1602 1748 c-21 -29 -69 -96 -107 -148 -37 -52 -73 -101 -79 -109
-21 -27 15 0 184 137 234 191 220 172 123 172 l-82 0 -39 -52z"/>
</g>
</svg>
