<?xml version="1.0" standalone="no"?>
<!DOCTYPE svg PUBLIC "-//W3C//DTD SVG 20010904//EN"
 "http://www.w3.org/TR/2001/REC-SVG-20010904/DTD/svg10.dtd">
<svg version="1.0" xmlns="http://www.w3.org/2000/svg"
 width="387.000000pt" height="387.000000pt" viewBox="0 0 387.000000 387.000000"
 preserveAspectRatio="xMidYMid meet">
<metadata>
Created by potrace 1.11, written by Peter Selinger 2001-2013
</metadata>
<g transform="translate(0.000000,387.000000) scale(0.100000,-0.100000)"
fill="#000000" stroke="none">
<path d="M0 1935 l0 -1935 1935 0 1935 0 0 1935 0 1935 -1935 0 -1935 0 0
-1935z m2652 963 c44 -34 73 -102 65 -154 -10 -62 -358 -1206 -383 -1260 -13
-28 -33 -59 -43 -68 -48 -44 -68 -45 -667 -46 -429 0 -573 -3 -582 -12 -31
-31 1 -99 58 -122 36 -14 111 -16 653 -16 589 0 613 1 644 20 23 14 36 32 46
67 8 26 92 302 186 613 94 311 173 580 177 598 8 38 12 39 49 10 32 -25 55
-75 55 -120 0 -33 -328 -1131 -359 -1203 -21 -47 -78 -100 -135 -126 -38 -17
-79 -19 -648 -19 -581 0 -610 1 -660 20 -109 41 -204 157 -215 263 -7 69 34
198 229 727 83 223 178 485 214 582 73 206 84 229 120 257 27 21 30 21 594 19
l567 -3 35 -27z"/>
<path d="M1586 2372 l-110 -97 83 -3 82 -3 98 86 c141 122 139 115 40 115
l-84 -1 -109 -97z"/>
<path d="M1962 2462 c2 -4 27 -49 56 -100 l54 -92 84 0 c46 0 84 2 84 4 0 9
-105 181 -115 188 -14 10 -168 10 -163 0z"/>
<path d="M1802 2363 l-100 -88 79 -3 c44 -2 115 -2 158 0 l79 3 -51 87 c-29
48 -55 88 -59 88 -4 0 -52 -39 -106 -87z"/>
<path d="M1485 2213 c110 -169 205 -305 205 -293 -1 8 -13 83 -28 165 l-28
150 -83 3 -84 3 18 -28z"/>
<path d="M1681 2233 c4 -50 66 -352 72 -353 7 -1 89 107 221 293 l48 67 -171
0 c-94 0 -171 -3 -170 -7z"/>
<path d="M2032 2188 c-143 -196 -204 -282 -191 -272 30 22 355 288 374 306 19
18 18 18 -62 18 l-82 0 -39 -52z"/>
</g>
</svg>
